<svg viewBox="0 0 32 32" xmlns="http://www.w3.org/2000/svg"><g data-name="Layer 2"><path d="M16 19a1 1 0 0 1-1-.76l-1.51-6.06A2.5 2.5 0 0 1 14 10a2.56 2.56 0 0 1 4 0 2.5 2.5 0 0 1 .46 2.19L17 18.24a1 1 0 0 1-1 .76Zm0-8a.54.54 0 0 0-.44.22.52.52 0 0 0-.1.48l.54 2.18.54-2.18a.52.52 0 0 0-.1-.48A.54.54 0 0 0 16 11Z" fill="#33b4ff" class="fill-000000"></path><circle cx="16" cy="21.5" r="1.5" fill="#33b4ff" class="fill-000000"></circle><path d="M16 29a13 13 0 1 1 13-13 13 13 0 0 1-13 13Zm0-24a11 11 0 1 0 11 11A11 11 0 0 0 16 5Z" fill="#33b4ff" class="fill-000000"></path></g><path d="M0 0h32v32H0z" fill="none"></path></svg>