<svg fill="none" viewBox="0 0 24 24" xmlns="http://www.w3.org/2000/svg"><path clip-rule="evenodd" d="M5 16a2 2 0 0 1 2-2h3a2 2 0 0 1 2 2v3a2 2 0 0 1-2 2H7a2 2 0 0 1-2-2v-3Zm5 0H7v3h3v-3ZM3 5a2 2 0 0 1 2-2h5a2 2 0 0 1 2 2v5a2 2 0 0 1-2 2H5a2 2 0 0 1-2-2V5Zm7 0H5v5h5V5ZM14 16a2 2 0 0 1 2-2h3a2 2 0 0 1 2 2v3a2 2 0 0 1-2 2h-3a2 2 0 0 1-2-2v-3Zm5 0h-3v3h3v-3ZM14 7a2 2 0 0 1 2-2h3a2 2 0 0 1 2 2v3a2 2 0 0 1-2 2h-3a2 2 0 0 1-2-2V7Zm5 0h-3v3h3V7Z" fill="#33b4ff" fill-rule="evenodd" class="fill-000000"></path></svg>